<mxfile host="app.diagrams.net" modified="2021-06-02T09:09:55.197Z" agent="5.0 (Windows NT 10.0; WOW64) AppleWebKit/537.36 (KHTML, like Gecko) Chrome/86.0.4240.198 Safari/537.36" etag="8mRbHhKOuJhNguSfYoqt" version="14.7.3" type="github">
  <diagram id="0XFOo5WfWtpuxFxuufUj" name="Page-1">
    <mxGraphModel dx="783" dy="754" grid="1" gridSize="10" guides="1" tooltips="1" connect="1" arrows="1" fold="1" page="1" pageScale="1" pageWidth="827" pageHeight="1169" math="0" shadow="0">
      <root>
        <mxCell id="0" />
        <mxCell id="1" parent="0" />
        <mxCell id="OTzWsGNzkJKnARdKistW-3" value="" style="edgeStyle=orthogonalEdgeStyle;rounded=0;orthogonalLoop=1;jettySize=auto;html=1;" edge="1" parent="1" source="OTzWsGNzkJKnARdKistW-1" target="OTzWsGNzkJKnARdKistW-2">
          <mxGeometry relative="1" as="geometry" />
        </mxCell>
        <mxCell id="OTzWsGNzkJKnARdKistW-1" value="10BTC&lt;br&gt;&lt;font style=&quot;font-size: 16px&quot;&gt;A-----------&amp;gt;B&lt;/font&gt;" style="rounded=0;whiteSpace=wrap;html=1;fillColor=#fff2cc;strokeColor=#d6b656;" vertex="1" parent="1">
          <mxGeometry x="90" y="220" width="130" height="50" as="geometry" />
        </mxCell>
        <mxCell id="OTzWsGNzkJKnARdKistW-6" value="" style="edgeStyle=orthogonalEdgeStyle;rounded=0;orthogonalLoop=1;jettySize=auto;html=1;" edge="1" parent="1" source="OTzWsGNzkJKnARdKistW-2" target="OTzWsGNzkJKnARdKistW-5">
          <mxGeometry relative="1" as="geometry" />
        </mxCell>
        <mxCell id="OTzWsGNzkJKnARdKistW-2" value="&lt;font style=&quot;font-size: 16px&quot;&gt;摘要&lt;/font&gt;" style="rounded=0;whiteSpace=wrap;html=1;fillColor=#f8cecc;strokeColor=#b85450;" vertex="1" parent="1">
          <mxGeometry x="340" y="220" width="130" height="50" as="geometry" />
        </mxCell>
        <mxCell id="OTzWsGNzkJKnARdKistW-4" value="哈希函数" style="text;html=1;strokeColor=none;fillColor=none;align=center;verticalAlign=middle;whiteSpace=wrap;rounded=0;" vertex="1" parent="1">
          <mxGeometry x="240" y="220" width="70" height="20" as="geometry" />
        </mxCell>
        <mxCell id="OTzWsGNzkJKnARdKistW-5" value="&lt;font style=&quot;font-size: 16px&quot;&gt;密文&lt;/font&gt;" style="rounded=0;whiteSpace=wrap;html=1;fillColor=#dae8fc;strokeColor=#6c8ebf;" vertex="1" parent="1">
          <mxGeometry x="580" y="220" width="130" height="50" as="geometry" />
        </mxCell>
        <mxCell id="OTzWsGNzkJKnARdKistW-7" value="私钥加密" style="text;html=1;strokeColor=none;fillColor=none;align=center;verticalAlign=middle;whiteSpace=wrap;rounded=0;" vertex="1" parent="1">
          <mxGeometry x="500" y="220" width="60" height="20" as="geometry" />
        </mxCell>
        <mxCell id="OTzWsGNzkJKnARdKistW-9" value="&lt;font style=&quot;font-size: 15px&quot;&gt;A广播消息、公钥、密文，其他节点会接收，然后做如下操作&lt;/font&gt;" style="text;html=1;strokeColor=none;fillColor=none;align=center;verticalAlign=middle;whiteSpace=wrap;rounded=0;" vertex="1" parent="1">
          <mxGeometry x="90" y="290" width="430" height="20" as="geometry" />
        </mxCell>
        <mxCell id="OTzWsGNzkJKnARdKistW-12" value="" style="edgeStyle=orthogonalEdgeStyle;rounded=0;orthogonalLoop=1;jettySize=auto;html=1;" edge="1" parent="1" source="OTzWsGNzkJKnARdKistW-10" target="OTzWsGNzkJKnARdKistW-11">
          <mxGeometry relative="1" as="geometry" />
        </mxCell>
        <mxCell id="OTzWsGNzkJKnARdKistW-10" value="10BTC&lt;br&gt;&lt;font style=&quot;font-size: 16px&quot;&gt;A-----------&amp;gt;B&lt;/font&gt;" style="rounded=0;whiteSpace=wrap;html=1;fillColor=#fff2cc;strokeColor=#d6b656;" vertex="1" parent="1">
          <mxGeometry x="90" y="330" width="130" height="50" as="geometry" />
        </mxCell>
        <mxCell id="OTzWsGNzkJKnARdKistW-11" value="&lt;font style=&quot;font-size: 18px&quot;&gt;摘要1&lt;/font&gt;" style="rounded=0;whiteSpace=wrap;html=1;fillColor=#e1d5e7;strokeColor=#9673a6;" vertex="1" parent="1">
          <mxGeometry x="90" y="460" width="130" height="50" as="geometry" />
        </mxCell>
        <mxCell id="OTzWsGNzkJKnARdKistW-13" value="&lt;font style=&quot;font-size: 14px&quot;&gt;哈希函数&lt;/font&gt;" style="text;html=1;strokeColor=none;fillColor=none;align=center;verticalAlign=middle;whiteSpace=wrap;rounded=0;" vertex="1" parent="1">
          <mxGeometry x="160" y="410" width="60" height="20" as="geometry" />
        </mxCell>
        <mxCell id="OTzWsGNzkJKnARdKistW-20" style="edgeStyle=orthogonalEdgeStyle;rounded=0;orthogonalLoop=1;jettySize=auto;html=1;exitX=0.5;exitY=1;exitDx=0;exitDy=0;entryX=0.5;entryY=0;entryDx=0;entryDy=0;" edge="1" parent="1" source="OTzWsGNzkJKnARdKistW-14" target="OTzWsGNzkJKnARdKistW-19">
          <mxGeometry relative="1" as="geometry">
            <Array as="points">
              <mxPoint x="405" y="430" />
              <mxPoint x="515" y="430" />
            </Array>
          </mxGeometry>
        </mxCell>
        <mxCell id="OTzWsGNzkJKnARdKistW-14" value="&lt;font style=&quot;font-size: 16px&quot;&gt;公钥&lt;/font&gt;" style="rounded=0;whiteSpace=wrap;html=1;fillColor=#d5e8d4;strokeColor=#82b366;" vertex="1" parent="1">
          <mxGeometry x="340" y="330" width="130" height="50" as="geometry" />
        </mxCell>
        <mxCell id="OTzWsGNzkJKnARdKistW-21" style="edgeStyle=orthogonalEdgeStyle;rounded=0;orthogonalLoop=1;jettySize=auto;html=1;entryX=0.5;entryY=0;entryDx=0;entryDy=0;" edge="1" parent="1" target="OTzWsGNzkJKnARdKistW-19">
          <mxGeometry relative="1" as="geometry">
            <mxPoint x="640" y="380" as="sourcePoint" />
            <Array as="points">
              <mxPoint x="640" y="380" />
              <mxPoint x="640" y="430" />
              <mxPoint x="515" y="430" />
            </Array>
          </mxGeometry>
        </mxCell>
        <mxCell id="OTzWsGNzkJKnARdKistW-16" value="&lt;font style=&quot;font-size: 16px&quot;&gt;密文&lt;/font&gt;" style="rounded=0;whiteSpace=wrap;html=1;fillColor=#dae8fc;strokeColor=#6c8ebf;" vertex="1" parent="1">
          <mxGeometry x="570" y="330" width="130" height="50" as="geometry" />
        </mxCell>
        <mxCell id="OTzWsGNzkJKnARdKistW-19" value="&lt;font style=&quot;font-size: 18px&quot;&gt;摘要1&lt;/font&gt;" style="rounded=0;whiteSpace=wrap;html=1;fillColor=#e1d5e7;strokeColor=#9673a6;" vertex="1" parent="1">
          <mxGeometry x="450" y="460" width="130" height="50" as="geometry" />
        </mxCell>
        <mxCell id="OTzWsGNzkJKnARdKistW-22" value="&lt;font style=&quot;font-size: 21px&quot;&gt;公钥解密&lt;/font&gt;" style="text;html=1;strokeColor=none;fillColor=none;align=center;verticalAlign=middle;whiteSpace=wrap;rounded=0;" vertex="1" parent="1">
          <mxGeometry x="455" y="400" width="120" height="20" as="geometry" />
        </mxCell>
      </root>
    </mxGraphModel>
  </diagram>
</mxfile>
